#!OML:ASF F:\VICON\USERDATA\INSTALL\Justin_Nancy\Justin_Nancy.ASF
:FULLY-SPECIFIED
:DEGREES
254
root 2.42437 17.5874 3.04672 -4.43643 -54.4353 7.49328
lowerback 4.96503 1.45348 -3.56164
upperback 0.486433 1.75538 0.793609
thorax -2.41492 0.91243 2.69261
lowerneck -15.2179 -3.44454 -10.5824
upperneck 22.8463 -3.67698 5.75485
head 10.1015 -2.01804 3.31393
rclavicle -7.77745e-014 3.97569e-015
rhumerus -33.3367 -15.5865 -77.9299
rradius 26.522
rwrist 9.12578
rhand -12.2058 12.7884
rfingers 7.12502
rthumb 13.8587 -16.7298
lclavicle -7.77745e-014 3.97569e-015
lhumerus -31.6915 17.7997 80.5522
lradius 24.5839
lwrist -10.5247
lhand -13.659 26.7424
lfingers 7.12502
lthumb 12.4579 56.3511
rfemur -7.07419 4.5008 17.8581
rtibia 58.1126
rfoot 8.56031 9.05859
rtoes 6.44712
lfemur -15.5458 -1.9562 -26.3839
ltibia 19.6169
lfoot -4.6908 -6.79839
ltoes 9.73308
255
root 2.33364 17.5946 3.16358 -4.64966 -54.6491 7.42151
lowerback 5.153 1.46675 -3.51446
upperback 0.496123 1.77172 0.915948
thorax -2.51392 0.922155 2.78707
lowerneck -15.0036 -3.45486 -10.8067
upperneck 22.7855 -3.63932 5.68223
head 10.0403 -2.03114 3.3306
rclavicle 5.26282e-014 0
rhumerus -33.6882 -14.6975 -77.9822
rradius 27.0155
rwrist 8.3018
rhand -12.586 12.0553
rfingers 7.12502
rthumb 13.4923 -17.4876
lclavicle 5.26282e-014 0
lhumerus -31.5874 17.5288 80.8448
lradius 24.3729
lwrist -10.4775
lhand -13.4778 26.8954
lfingers 7.12502
lthumb 12.6326 56.4934
rfemur -8.16651 4.34248 17.7406
rtibia 60.0737
rfoot 7.30181 7.25883
rtoes 6.35373
lfemur -14.6849 -1.9883 -26.5043
ltibia 19.6549
lfoot -5.28597 -6.55846
ltoes 7.99847
256
root 2.25755 17.605 3.25266 -4.30722 -54.2246 6.75266
lowerback 5.58663 1.2515 -3.09319
upperback 0.487645 1.496 0.961202
thorax -2.73507 0.78374 2.60972
lowerneck -15.1451 -3.44713 -10.4933
upperneck 22.8243 -3.64813 5.49805
head 10.0714 -2.0274 3.21045
rclavicle 8.74653e-015 -1.43125e-014
rhumerus -33.7971 -14.696 -78.0582
rradius 27.1374
rwrist 8.35092
rhand -12.4985 12.2544
rfingers 7.12502
rthumb 13.5766 -17.2829
lclavicle 8.74653e-015 -1.43125e-014
lhumerus -31.3219 17.2428 80.8763
lradius 23.9037
lwrist -11.663
lhand -14.0703 26.578
lfingers 7.12502
lthumb 12.0613 56.2104
rfemur -9.50016 3.67076 18.1714
rtibia 61.9324
rfoot 6.05713 5.28412
rtoes 7.11015
lfemur -14.0589 -2.03333 -26.2809
ltibia 19.5684
lfoot -4.92491 -6.59621
ltoes 12.1699
257
root 2.1789 17.6095 3.34123 -4.51605 -53.8822 6.91439
lowerback 5.74701 1.0142 -3.21903
upperback 0.525247 1.16524 0.910022
thorax -2.76464 0.619881 2.65274
lowerneck -15.3747 -3.37741 -10.3484
upperneck 22.8843 -3.52804 5.36171
head 10.1203 -1.97252 3.15308
rclavicle -2.64384e-014 5.56597e-015
rhumerus -33.721 -15.3574 -77.8254
rradius 27.0003
rwrist 9.71184
rhand -11.7639 13.5147
rfingers 7.12502
rthumb 14.2845 -15.974
lclavicle -2.64384e-014 5.56597e-015
lhumerus -30.935 16.8921 80.9873
lradius 23.4133
lwrist -12.6092
lhand -14.9963 26.3959
lfingers 7.12502
lthumb 11.1683 56.0786
rfemur -10.9575 3.01581 17.9711
rtibia 63.7298
rfoot 4.90426 3.70649
rtoes 9.01115
lfemur -13.4404 -2.14789 -26.5324
ltibia 19.3109
lfoot -5.83963 -7.24596
ltoes 8.50232
258
root 2.09032 17.6147 3.44268 -5.47221 -53.8803 8.18818
lowerback 5.57466 0.810864 -4.14218
upperback 0.471254 0.841158 0.856521
thorax -2.71386 0.469103 3.14573
lowerneck -15.1071 -3.2108 -10.639
upperneck 22.6714 -3.2268 5.30163
head 9.972 -1.86563 3.21905
rclavicle -7.196e-014 -7.95139e-016
rhumerus -33.7672 -15.1565 -77.6993
rradius 27.0721
rwrist 10.2689
rhand -11.7825 13.891
rfingers 7.12502
rthumb 14.2666 -15.5989
lclavicle -7.196e-014 -7.95139e-016
lhumerus -30.9423 17.2503 80.9911
lradius 23.2558
lwrist -12.9239
lhand -15.6782 26.2371
lfingers 7.12502
lthumb 10.5106 55.9543
rfemur -12.4961 2.5888 16.9654
rtibia 65.4075
rfoot 3.8413 2.41041
rtoes 8.85309
lfemur -12.815 -2.13769 -27.4822
ltibia 18.9235
lfoot -5.09626 -6.80556
ltoes 15.2926
259
root 2.00317 17.6136 3.53927 -6.30917 -53.9989 9.11099
lowerback 5.60463 0.71002 -4.82977
upperback 0.468237 0.660802 0.806718
thorax -2.7259 0.387242 3.49624
lowerneck -14.9702 -3.07349 -10.6158
upperneck 22.6052 -3.01354 5.13403
head 9.90074 -1.78521 3.18317
rclavicle 8.99501e-015 7.95139e-016
rhumerus -33.8265 -14.841 -77.7054
rradius 27.2205
rwrist 10.5101
rhand -11.7384 14.2035
rfingers 7.12502
rthumb 14.3091 -15.2835
lclavicle 8.99501e-015 7.95139e-016
lhumerus -30.9365 17.9063 80.841
lradius 23.1584
lwrist -13.3612
lhand -16.667 25.2751
lfingers 7.12502
lthumb 9.55663 55.0384
rfemur -13.8092 2.53962 16.1888
rtibia 66.9277
rfoot 2.85675 0.966431
rtoes 12.4353
lfemur -11.9107 -2.04284 -28.1606
ltibia 18.2762
lfoot -5.26151 -6.66365
ltoes 16.7698
260
root 1.91803 17.614 3.64256 -6.61414 -53.8195 9.25387
lowerback 5.77266 0.610543 -4.88384
upperback 0.541523 0.515141 0.750759
thorax -2.73007 0.313246 3.47984
lowerneck -15.1652 -3.03752 -10.4189
upperneck 22.7656 -2.96097 4.99224
head 9.9846 -1.76126 3.1081
rclavicle 2.21148e-014 -1.66979e-014
rhumerus -33.923 -14.9401 -77.7295
rradius 27.516
rwrist 10.2443
rhand -11.6871 14.3728
rfingers 7.12502
rthumb 14.3585 -15.1106
lclavicle 2.21148e-014 -1.66979e-014
lhumerus -30.5841 17.8164 80.922
lradius 23.0244
lwrist -13.4921
lhand -17.1384 25.3233
lfingers 7.12502
lthumb 9.10181 55.1069
rfemur -14.8275 2.20297 15.8399
rtibia 68.1995
rfoot 1.67141 -0.367619
rtoes 17.3599
lfemur -10.8367 -2.14693 -28.4371
ltibia 17.671
lfoot -5.71474 -6.57724
ltoes 15.9169
261
root 1.8338 17.6114 3.74649 -7.20323 -53.4383 9.98614
lowerback 5.7217 0.463789 -5.33188
upperback 0.540311 0.289915 0.622847
thorax -2.68271 0.204085 3.61814
lowerneck -15.0541 -3.01394 -10.4387
upperneck 22.7262 -2.93375 4.98499
head 9.94737 -1.7522 3.1123
rclavicle 9.24349e-015 4.77083e-015
rhumerus -34.1947 -15.0143 -77.5966
rradius 27.9176
rwrist 9.7563
rhand -11.7269 14.6872
rfingers 7.12502
rthumb 14.3202 -14.7989
lclavicle 9.24349e-015 4.77083e-015
lhumerus -30.1793 17.7583 80.9287
lradius 22.8615
lwrist -13.4358
lhand -16.1044 25.8611
lfingers 7.12502
lthumb 10.0995 55.5988
rfemur -16.2085 1.09923 15.243
rtibia 69.2614
rfoot 0.85569 -1.20957
rtoes 8.50466
lfemur -10.1623 -1.91386 -29.2085
ltibia 17.5069
lfoot -6.20531 -6.71831
ltoes 14.936
262
root 1.74374 17.5996 3.8361 -7.45666 -53.497 10.3225
lowerback 5.52204 0.429368 -5.58575
upperback 0.599193 0.240106 0.574047
thorax -2.50558 0.175322 3.71472
lowerneck -14.7921 -3.04166 -10.4803
upperneck 22.501 -2.99596 5.02355
head 9.82421 -1.7786 3.12257
rclavicle -1.26328e-013 2.22639e-014
rhumerus -34.3823 -14.9098 -77.6212
rradius 28.3386
rwrist 9.29033
rhand -11.7273 15.1651
rfingers 7.12502
rthumb 14.3197 -14.3211
lclavicle -1.26328e-013 2.22639e-014
lhumerus -29.7455 18.0865 80.8161
lradius 22.7727
lwrist -13.3307
lhand -15.1774 26.0012
lfingers 7.12502
lthumb 10.9937 55.6933
rfemur -17.6201 1.09759 15.0125
rtibia 70.1383
rfoot -0.605402 -1.8911
rtoes 8.49753
lfemur -9.75646 -1.85161 -29.538
ltibia 17.6577
lfoot -6.77813 -6.55979
ltoes 16.7022
263
root 1.65791 17.5939 3.92437 -6.46973 -53.5769 8.95713
lowerback 5.78167 0.291775 -4.95904
upperback 0.482129 0.0897897 0.933621
thorax -2.75586 0.105348 3.74719
lowerneck -14.6004 -2.97247 -10.5708
upperneck 22.6712 -2.88271 4.91589
head 9.8395 -1.75471 3.1173
rclavicle 3.59303e-014 1.35174e-014
rhumerus -34.7649 -14.2491 -77.6656
rradius 28.8902
rwrist 8.62188
rhand -12.0049 14.9421
rfingers 7.12502
rthumb 14.0522 -14.5628
lclavicle 3.59303e-014 1.35174e-014
lhumerus -29.8187 18.1579 80.9442
lradius 22.8174
lwrist -13.0718
lhand -15.8734 25.5819
lfingers 7.12502
lthumb 10.3223 55.3086
rfemur -18.7628 1.20578 16.0339
rtibia 70.7008
rfoot -2.03969 -2.77626
rtoes 9.66978
lfemur -9.38607 -2.09555 -28.7177
ltibia 18.0031
lfoot -7.38241 -6.42979
ltoes 18.6215
264
root 1.57425 17.5857 4.01653 -6.14193 -53.498 8.39077
lowerback 6.11962 0.140181 -4.93232
upperback 0.335136 -0.118848 1.29919
thorax -3.07608 0.0153205 4.13273
lowerneck -14.4537 -2.90483 -10.865
upperneck 22.8688 -2.68921 4.70186
head 9.87023 -1.7237 3.11853
rclavicle 9.97899e-014 9.54166e-015
rhumerus -35.1238 -13.5161 -77.5094
rradius 29.4678
rwrist 7.69839
rhand -12.1323 14.1012
rfingers 7.12502
rthumb 13.9295 -15.4122
lclavicle 9.97899e-014 9.54166e-015
lhumerus -29.9835 18.4104 81.2638
lradius 22.717
lwrist -13.4363
lhand -16.4668 25.2694
lfingers 7.12502
lthumb 9.74978 55.0237
rfemur -19.8286 0.90349 16.4561
rtibia 71.0286
rfoot -1.91371 -4.86981
rtoes 9.17904
lfemur -9.12599 -1.99039 -28.487
ltibia 18.5991
lfoot -7.91057 -6.64518
ltoes 17.0879
